<?xml version="1.0" standalone="no"?>
<!DOCTYPE svg PUBLIC "-//W3C//DTD SVG 20010904//EN"
 "http://www.w3.org/TR/2001/REC-SVG-20010904/DTD/svg10.dtd">
<svg version="1.0" xmlns="http://www.w3.org/2000/svg"
 width="500.000000pt" height="500.000000pt" viewBox="0 0 500.000000 500.000000"
 preserveAspectRatio="xMidYMid meet">
<metadata>
Created by potrace 1.16, written by Peter Selinger 2001-2019
</metadata>
<g transform="translate(0.000000,500.000000) scale(0.100000,-0.100000)"
fill="#000000" stroke="none">
<path d="M2358 4763 c22 -27 54 -61 72 -78 43 -41 94 -111 124 -172 15 -28 26
-53 26 -55 0 -2 -21 16 -47 40 -27 25 -77 59 -113 76 -65 30 -66 31 -275 36
-227 7 -266 15 -356 75 -41 27 -45 24 -28 -22 19 -50 63 -105 111 -137 l47
-32 -72 -30 -73 -30 -81 66 c-94 76 -221 145 -346 189 -97 34 -265 71 -322 71
-31 0 -38 -4 -50 -32 -7 -18 -20 -67 -29 -108 -55 -273 -8 -561 132 -801 l39
-66 -24 -54 c-14 -30 -42 -104 -63 -165 -48 -139 -52 -145 -122 -195 -32 -22
-58 -42 -58 -44 0 -12 154 58 223 102 20 13 37 21 37 18 0 -3 -22 -32 -49 -66
-27 -33 -63 -88 -79 -122 -31 -62 -57 -175 -50 -218 3 -20 9 -14 46 41 23 36
55 80 71 98 l28 33 6 -93 c7 -101 16 -143 49 -227 21 -53 21 -55 3 -65 -35
-20 -106 -90 -121 -118 -26 -50 -35 -127 -23 -192 33 -182 191 -336 378 -368
l70 -12 31 -88 c39 -110 88 -184 179 -272 l71 -68 -29 -34 c-30 -33 -51 -88
-51 -131 0 -12 -14 -42 -31 -66 -23 -33 -32 -59 -36 -103 l-6 -59 -97 -47
c-73 -35 -113 -62 -157 -107 -100 -100 -146 -212 -317 -768 l-83 -268 36 -7
c51 -9 475 -46 666 -58 712 -43 1590 -38 2272 15 106 8 199 15 208 15 34 0 9
170 -61 412 -44 152 -108 316 -174 448 -108 215 -179 290 -324 345 -33 13 -62
29 -63 36 -9 66 -17 93 -43 130 -16 24 -30 58 -30 74 -1 41 -31 104 -67 138
l-30 28 54 52 c104 98 184 226 215 343 l11 41 70 11 c148 23 283 123 348 259
45 93 52 204 19 281 -21 47 -72 105 -115 129 -16 9 -16 14 4 78 46 148 48 350
6 491 l-13 43 58 -40 c61 -41 127 -69 166 -69 21 0 19 6 -33 78 -30 42 -85
138 -121 212 l-65 134 22 36 c56 90 134 266 158 356 37 141 44 368 15 504 -30
141 -34 150 -78 150 -52 0 -218 -35 -310 -66 -213 -71 -407 -205 -525 -362
-24 -31 -46 -61 -50 -66 -4 -5 1 20 12 55 29 91 23 215 -14 290 -24 49 -137
176 -137 154 0 -6 7 -32 15 -59 32 -105 13 -202 -54 -279 l-32 -36 -107 108
c-144 146 -265 225 -431 285 l-73 26 40 -47z m-1074 -314 c44 -22 115 -66 156
-97 l74 -57 -49 -3 c-57 -3 -165 -32 -165 -44 0 -4 16 -8 35 -8 19 0 35 -3 35
-7 -1 -5 -21 -23 -46 -41 -24 -18 -42 -37 -40 -41 3 -4 -12 -25 -33 -45 l-38
-37 -18 68 c-30 119 -32 353 -3 353 6 0 47 -18 92 -41z m2588 -5 c15 -86 -1
-268 -32 -349 l-10 -27 -55 64 c-50 59 -75 79 -115 91 -8 2 3 8 25 11 64 12
74 17 45 26 -14 4 -43 13 -66 20 -23 7 -62 11 -87 9 l-46 -4 21 22 c54 58 275
189 303 180 5 -2 13 -21 17 -43z m-674 -1184 c52 -79 104 -187 126 -258 15
-51 14 -53 -2 -46 -54 24 -181 64 -204 64 -22 0 -31 7 -44 38 -29 69 -64 237
-70 332 l-6 95 79 -80 c43 -44 98 -109 121 -145z m-1188 -49 c64 -166 191
-320 344 -420 64 -40 224 -116 232 -108 2 1 -15 31 -37 66 -61 96 -159 300
-159 331 0 2 20 -30 44 -73 55 -96 113 -166 194 -233 60 -49 219 -140 229
-130 3 2 -18 46 -45 98 -61 113 -106 239 -126 350 -14 78 -26 208 -19 208 1 0
12 -19 24 -42 33 -66 98 -147 161 -199 l57 -48 -42 -14 c-25 -8 -43 -21 -45
-31 -7 -34 13 -39 93 -21 74 17 79 17 114 0 l36 -18 -30 -7 c-45 -10 -105 -43
-166 -92 l-54 -43 35 -5 c21 -4 44 0 57 8 23 14 23 14 -4 -44 -75 -165 17
-384 162 -384 108 0 195 130 182 270 -8 94 -64 194 -122 221 -15 7 -11 8 15 4
81 -12 163 -107 197 -227 l16 -58 30 40 c16 23 42 47 58 56 l30 15 -20 25
c-20 26 -20 26 -1 63 29 59 51 157 58 266 l7 100 35 -110 35 -110 -2 -200 c-1
-146 -7 -239 -22 -342 -23 -156 -28 -176 -43 -167 -17 11 -159 -17 -258 -50
-87 -28 -95 -33 -98 -58 -4 -33 15 -36 70 -14 42 18 177 52 240 61 l48 7 -24
-70 c-40 -118 -31 -111 -132 -95 -48 8 -117 13 -153 11 -63 -3 -66 -4 -66 -28
0 -24 3 -25 85 -31 123 -9 190 -19 190 -30 0 -21 -179 -189 -247 -233 -195
-125 -432 -184 -700 -173 -252 10 -459 74 -654 203 -62 41 -219 193 -219 213
0 5 50 12 110 16 89 6 112 11 120 24 20 38 -1 44 -137 36 l-130 -7 -32 87
c-55 152 -111 493 -111 675 l0 75 20 -30 c34 -52 113 -126 160 -150 25 -13 56
-37 69 -55 25 -34 40 -28 41 15 0 33 46 120 86 165 42 46 72 64 124 74 l35 7
-34 -17 c-67 -35 -121 -144 -121 -244 0 -153 111 -274 220 -241 79 24 132 96
150 203 10 63 -3 149 -31 196 -24 41 -24 50 -1 29 11 -10 32 -15 56 -14 l38 2
-51 46 c-28 25 -73 56 -99 68 -45 21 -80 56 -68 68 3 3 27 0 53 -6 41 -11 49
-10 59 4 27 36 3 51 -98 64 -49 6 -52 8 -65 46 -19 53 -42 179 -43 234 0 24 5
74 11 110 l12 66 17 -85 c10 -47 32 -123 50 -169z m-350 -3 c12 -32 46 -92 76
-134 30 -42 54 -77 52 -78 -2 -2 -25 -11 -53 -20 -27 -10 -69 -29 -92 -42 -23
-13 -44 -24 -46 -24 -20 0 -13 317 10 440 6 34 6 34 19 -25 6 -33 22 -86 34
-117z m224 -283 c14 -11 16 -15 5 -15 -34 0 -145 -64 -199 -116 l-60 -57 -10
29 c-26 66 12 108 140 154 66 23 98 24 124 5z m-661 -234 l18 -31 -25 0 c-14
0 -38 -11 -53 -25 -25 -22 -26 -24 -8 -25 28 0 125 -47 125 -60 0 -6 -7 -13
-15 -17 -21 -8 -46 -58 -39 -77 9 -24 38 -19 62 9 28 32 70 34 76 3 10 -48 47
-263 48 -273 0 -17 -65 -5 -129 25 -85 39 -146 98 -188 183 -29 57 -35 81 -35
133 0 94 24 141 94 185 33 20 42 16 69 -30z m2681 9 c130 -114 52 -376 -141
-473 -58 -30 -153 -50 -153 -33 0 6 9 62 20 125 11 62 20 126 20 142 0 26 3
29 34 29 25 0 40 -7 54 -25 22 -27 44 -32 60 -12 13 17 -1 50 -33 75 l-27 21
34 21 c18 11 50 25 71 32 20 6 37 15 37 19 0 7 -19 22 -58 45 -5 3 33 64 40
64 4 0 23 -14 42 -30z m-1539 -1270 c124 -16 321 -9 438 16 l27 6 0 -109 0
-108 -95 -75 c-124 -98 -189 -133 -229 -124 -53 11 -119 52 -210 130 l-86 75
0 106 0 106 43 -7 c23 -4 74 -11 112 -16z m1168 -278 c72 -33 128 -90 189
-195 103 -177 220 -505 273 -764 6 -31 5 -33 -23 -33 -30 0 -31 2 -51 88 -11
48 -32 143 -46 212 -75 357 -191 562 -374 667 -25 15 -48 28 -50 29 -4 3 9 24
15 24 2 0 33 -13 67 -28z m-1953 10 c0 -4 -17 -16 -37 -27 -57 -30 -163 -141
-215 -225 -80 -127 -115 -245 -174 -572 l-29 -158 -32 0 c-31 0 -32 1 -26 33
8 46 96 339 149 497 90 268 151 360 285 427 68 34 79 38 79 25z"/>
<path d="M1592 2124 l3 -29 91 -6 c51 -4 116 -12 145 -18 42 -9 55 -9 66 2 40
39 -31 65 -205 74 l-104 6 4 -29z"/>
<path d="M2309 1844 c-17 -20 -4 -41 42 -66 27 -15 46 -18 89 -13 66 7 81 7
143 -1 60 -8 87 -1 120 30 54 50 18 92 -40 46 -33 -26 -83 -26 -117 1 l-26 21
-34 -21 c-42 -26 -86 -27 -119 -1 -30 24 -41 25 -58 4z"/>
</g>
</svg>
